<?xml version="1.0" encoding="UTF-8" standalone="no"?>
<svg id="svg2" xmlns:rdf="http://www.w3.org/1999/02/22-rdf-syntax-ns#" xmlns="http://www.w3.org/2000/svg" height="266pt" width="527pt" version="1.1" xmlns:cc="http://creativecommons.org/ns#" xmlns:dc="http://purl.org/dc/elements/1.1/" viewBox="0 0 527 266">
<g id="g4223">
<path id="rect4220" d="m74.642 0.48281c-4.953-0.10229-9.599 1.7578-11.492 6.9578-6.37 13.09-9.5094 28.17-7.3594 42.65 3.86 15.08 9.3094 29.82 11.659 45.25-1.65 5.11 1.08 12.859-4.65 15.619-5.06 0.56-10.29 0.84093-15.08 2.6609-8.39 4.36-10.611 14.77-10.891 23.43-1.67 11.57-1.35 23.929 1.75 35.309 3.28 5.65 4.7503 11.981 6.6203 18.181-11.71 3.95-21.089 12.519-30.809 19.819-6.75 5.79-14.571 14.651-11.581 24.211 1.53 7.32 10.321 7.5497 16.161 7.4297 18.14 7.14 36.459-2.5194 54.659-3.9094 1.75 6.16 3.1509 12.799 7.5109 17.769 5.12 4.98 12.14 7.4109 19.13 8.0609 16.9 0.97 33.66-2.4603 50.57-1.9703 16.23 1.99 32.52-0.51062 48.8-0.19062 29.68-2.56 62.519-3.2694 86.909-22.709 37.67-2.36 75.051-8.3694 112.74-10.809 30.09-0.28 60.25-1.66 90.08-5.9 11.02-1.56 22.519-3.5709 31.909-9.9109 4.35-3.71 2.5203-10.18 2.5703-15.07-1.09-11.85-1.6697-24.529-8.4297-34.769-6.9-10.12-18.17-15.801-26.7-24.311-6.29-5.91-11.141-13.099-15.511-20.489-9.28-16.19-23.45-29.55-40.18-37.82-31.71-15.751-68.02-19.851-103.01-18.971-44.36-1.03-88.501 4.9094-132.81 5.4094-6.7-1.1-13.8 0.49-20.25-1-7.65-7.76-14.36-16.57-23-23.38-7.33-9.4-17.609-15.799-26.789-23.209-11.33-7.63-23.3-16.32-37.45-16.92-1.22-2.99-8.669 0.16-11.629-1.05-1.146-0.21562-2.306-0.34358-3.449-0.36719z" fill="#9afdfd"/>
<path id="path4" d="m74.642 0.48281c-4.953-0.10229-9.599 1.7578-11.492 6.9578-6.37 13.09-9.5094 28.17-7.3594 42.65 3.86 15.08 9.3094 29.82 11.659 45.25 4.03-14.43-3.49-28.4-4.2-42.77-0.62-13.93-1.27-29.3 6.7-41.5 3.96-6.7707 12.08-10.251 19.77-9.171-1.22-2.99-8.669 0.16-11.629-1.05-1.146-0.21562-2.306-0.34358-3.449-0.36719zm16.681 9.3531c-2.1744-0.025664-4.3653 0.18344-6.5141 0.55469-7.1 1.32-10.409 8.92-12.209 15.2-4.93 17.61 1.9494 35.379 3.6094 52.909 3.41 0.86 6.67-1.7406 10-2.3406 25.14-6.53 51.33-8.7294 77.22-8.5594-1.88-5.33-6.2391-9.1403-9.7891-13.32-15.44-16-31.391-32.469-51.831-42.039-3.2812-1.6688-6.8619-2.3619-10.486-2.4047zm62.636 32.194c6.72 8.69 14.101 16.841 21.291 25.141 7.32 0.38 14.679 0.09906 21.959-0.76094-6.7-1.1-13.8 0.49-20.25-1-7.65-7.76-14.36-16.57-23-23.38zm-91.16 68.93c-5.06 0.56-10.29 0.84093-15.08 2.6609-8.39 4.36-10.611 14.77-10.891 23.43 2.19-4.21 4.05-8.6106 6.65-12.591 4.91-6.45 12.52-9.56 19.32-13.5zm3.5406 8.25c-12.51 3.22-22.18 14.7-22.2 27.75 0.83 11.58 2.8588 23.19 7.1188 34.02 4.57-0.26 9.1312-0.59938 13.681-0.95938-0.34-20.29 1.29-40.531 1.4-60.811zm6.6797 32.77c-0.27 9.63 0.01 19.271-0.0703 28.911 14.77-3.12 30.981-5.7606 45.041-6.9406-12.95-0.33-25.92 1.6197-38.85 0.27969-1.74-0.27-3.8606-0.33969-4.8906-2.0297-0.49-6.7-0.17062-13.42-0.24062-20.13l-0.98907-0.0906zm98.652 29.911c-0.25318-0.009-0.50749-0.006-0.76249 0.009-16.45 0.4-32.919-0.55969-49.339 0.67031-37.57 0.91-75.261 12.969-103.79 38.009 30.54 3.56 61.181-2.9694 89.991-12.859 2.81-1.76 7.0203 0.23938 4.6703 3.6094-31.02 10.76-63.921 19.22-97.061 14.27 2.6 11.29 18.87 11.691 27.8 9.7406 37.45-7.97 75.3-15.14 111.55-27.62 9.34-4.82 24.32-6.9806 25.92-19.541-1.6406-3.2719-5.1803-6.1483-8.9781-6.2891zm-126.47 8.65c-11.71 3.95-21.089 12.519-30.809 19.819-6.75 5.79-14.571 14.651-11.581 24.211 1.5294 7.32 10.32 7.55 16.16 7.43-8.48-4.04-15.33-14.87-10.02-23.83 10.01-11.37 23.76-18.681 36.72-26.191-0.12-0.36-0.35031-1.0791-0.47031-1.4391zm87.041 9.3922c1.7142 0.11671 3.3525 1.8094 2.25 3.4969-1.17 3.83-6.1809 3.47-9.2609 3.4-1.47-3.78 2.7203-5.1297 5.3703-6.4297 0.49-0.37 1.0692-0.5061 1.6406-0.46718z" fill="#689697"/>
<path id="path6" d="m86.825 1.7062c-6.7601 0.035137-13.41 3.4403-16.875 9.3641-7.97 12.2-7.32 27.57-6.7 41.5 0.71 14.37 8.23 28.34 4.2 42.77-1.65 5.11 1.08 12.859-4.65 15.619-6.8 3.94-14.41 7.05-19.32 13.5-2.6 3.98-4.46 8.3806-6.65 12.591-1.67 11.57-1.35 23.929 1.75 35.309 3.28 5.65 4.7503 11.981 6.6203 18.181 0.12 0.36 0.35031 1.0791 0.47031 1.4391-12.96 7.51-26.71 14.821-36.72 26.191-5.31 8.96 1.5403 19.79 10.02 23.83 18.14 7.14 36.459-2.5194 54.659-3.9094 1.75 6.16 3.1509 12.799 7.5109 17.769 5.12 4.98 12.14 7.4109 19.13 8.0609 16.9 0.97 33.66-2.4603 50.57-1.9703 16.23 1.99 32.52-0.51062 48.8-0.19062 29.68-2.56 62.519-3.2694 86.909-22.709 37.67-2.36 75.051-8.3694 112.74-10.809 30.09-0.28 60.25-1.66 90.08-5.9 11.02-1.56 22.519-3.5709 31.909-9.9109 4.35-3.71 2.5203-10.18 2.5703-15.07-1.09-11.85-1.6697-24.529-8.4297-34.769-6.9-10.12-18.17-15.801-26.7-24.311-6.29-5.91-11.141-13.099-15.511-20.489-9.28-16.19-23.45-29.55-40.18-37.82-31.72-15.746-68.03-19.846-103.02-18.966-44.36-1.03-88.501 4.9094-132.81 5.4094-7.28 0.86-14.639 1.1409-21.959 0.76094-7.19-8.3-14.571-16.451-21.291-25.141-7.33-9.4-17.609-15.799-26.789-23.209-11.33-7.63-23.3-16.32-37.45-16.92-0.961-0.135-1.929-0.1988-2.895-0.1938zm4.4984 8.1297c3.624 0.042774 7.2047 0.73594 10.486 2.4047 20.44 9.57 36.391 26.039 51.831 42.039 3.55 4.18 7.9091 7.9903 9.7891 13.32-25.89-0.17-52.08 2.0294-77.22 8.5594-3.33 0.6-6.59 3.2006-10 2.3406-1.66-17.53-8.539-35.299-3.609-52.909 1.8-6.28 5.1094-13.88 12.209-15.2 2.1488-0.37125 4.3396-0.58035 6.5141-0.55469zm215.53 58.944c-10.59 18.08-11.931 39.73-11.941 60.2-0.19 31.92 5.1206 64.291 18.591 93.391 0.68 2.06 3.57 4.1394 1.85 6.3094-8.05 0.34-16.099 1.23-24.159 1.25 2.84-17.79-9.4003-35.379-26.12-41.009-23.95-7.84-49.75-5.1403-74.23-1.3203-6.65-2.48-4.0912-16.561-14.131-13.591-19.57-0.15-39.139 0.13062-58.719-0.0594-14.06 1.18-30.271 3.8206-45.041 6.9406 0.08-9.64-0.19969-19.281 0.0703-28.911l0.98907 0.0906c-0.44-19.17 0.51031-38.33 1.3703-57.47-0.91-4.91 3.1097-9.3306 7.8797-9.5906 27.34-6.76 55.761-6.78 83.681-9.1 2.94-0.63 5 1.7112 7.2 3.1812 2.63 0.21 3.7897-2.6612 5.6797-3.9312 42.41-0.3 84.75-3.3097 127.03-6.3797zm24.966 0.26563c40.207 0.20029 82.689 4.6278 115.06 30.064 15.97 11.38 20.711 32.051 35.391 44.631 1.55 2.05 7.0797 4.81 2.9797 7.5-12.11 12.52-13.71 31.389-12.48 47.869 0.34 5.98 4.4303 11.05 4.9203 16.97-43.82 4.14-88.031 2.3897-131.66 8.9297-8.07 0.56-16.269 2.7712-24.339 1.6312-11.21-20.75-17.611-44.13-19.731-67.6-2.43-24.69-4.27-50.241 2.7-74.381 2.13-5.7 4.55-12.299 10.1-15.489 5.615-0.095 11.312-0.15361 17.056-0.125zm31.622 5.7203c-3.2282 0.01547-6.4666 0.20562-9.7078 0.58438-4.51 0.41-11.659 1.6994-10.839 7.8094 1.55 20.14 0.35876 40.661 4.1688 60.561 0.04 9.26 11.28 10.75 18.22 8.75 26.9-4.53 54.23-4.8909 81.45-4.5109 7.26 1.74 13.22-5.8194 11.82-12.509-3.81-17.31-16.41-31.65-31.26-40.75-19.15-11.629-41.26-20.043-63.85-19.934zm3.4953 8.1984c8.363 0.06738 16.82 1.2338 24.177 4.8156-14.51 13.92-27.88 29.54-37.6 47.2-1.97-16.8-2.82-33.8-2.5-50.72 1.53-0.42 3.1006-0.67969 4.6906-0.82969 3.65-0.3 7.4314-0.49626 11.233-0.46562zm29.347 6.2453c4.34 1.18 9.6906 2.2106 12.691 5.6406-11.48 10.69-20.021 24.039-30.141 35.959-5.28 7.16-14.06 11.2-22.8 12.02 0.25-4.6 3.76-8.0791 6-11.839 10.73-14.46 21.95-28.651 34.25-41.781zm-161.12 7.7984c-0.84399 0.03297-1.7031 0.15531-2.5781 0.38281-17.94 2.1-36.93 19-30.57 38.45 4.04 10.33 12.001 21.57 24.211 22.18 17.66 0.54 35.96-13.15 37.6-31.33 0.4-9.29-5.4009-17.61-12.861-22.65-4.725-3.115-9.8937-7.2636-15.802-7.0328zm179.18 0.334c3.5 0.02 6.4494 3.1988 9.5594 4.6688-10.73 12.94-23.25 24.471-32.33 38.731-6.03 1.6-13.659 2.6097-19.389 1.8297 16.33-12.88 27.779-30.56 42.159-45.23zm-268.48 2.8438c-3.1647-0.0352-6.2934 0.11-9.2359 0.275-4.87 0.65-9.6694 2.5812-13.509 5.6312-7.38 8.21-5.74 20.09-3.05 29.85 3.16 10.34 10.549 21.159 22.359 21.989 13.37 1.08 24.88-8.2494 31.57-18.959 5.57-8.89 5.7594-22.12-2.7406-29.28-6.0825-7.6725-15.9-9.4008-25.394-9.5062zm89.744 4.9656c2.96 0.15 4.7209 2.9397 6.4609 4.9797 10.16-0.36 15.43 12.371 12.17 20.941-4.97 12.21-19.181 22.64-32.711 17.72-1.05-0.95-4.2597-2.4603-3.0797-3.8703-7.65-3.23-9.22-13.961-8.4-21.291 3.26-10.83 14.329-18.55 25.559-18.48zm192.71 1.0688c2.9689-0.0943 6.456 3.3066 7.7641 5.7719 7.18 5.19 11.281 13.6 13.991 21.83 1.04 2.91 0.5803 8.3791-4.3797 6.6891-11.01-0.42-22.041-0.62-33.041 0.65-5.21 0.32-10.41 0.43-15.58 1 8.42-11.9 19.159-22.349 28.159-33.959 0.8409-1.3725 1.9242-1.9444 3.0859-1.9812zm-284.09 1.7484c3.2942 0.0742 6.5922 0.56564 9.5172 1.1625 8.22 2.01 17.959 9.34 15.609 18.75-1.75 6.3-5.0894 12.191-9.5094 16.991-5.35 5.72-15.121 6.3691-21.041 1.3891-9.4-5.81-15.74-18.529-12.25-29.369 3.1969-7.2256 10.426-9.0866 17.673-8.9234zm-77.883 11.242c-0.11 20.28-1.74 40.521-1.4 60.811 1.58 6.47-8.0703 5.6203-11.82 7.8703-1.01-2.17-1.6909-4.5109-1.8609-6.9109-4.26-10.83-6.2888-22.44-7.1188-34.02 0.02-13.05 9.69-24.53 22.2-27.75zm428.06 35.922c2.3804 0.0265 4.525 1.7853 5.7063 3.7891-5.09 2.63-10.029 5.5294-15.239 7.9094 1.74-4.37 3.96-9.71 8.5-11.6 0.3475-0.0712 0.6928-0.10223 1.0328-0.0984zm9.79 7.27c2.17 0.17 3.61 4.04 3.75 6.3-9.49 4.55-17.761 11.35-27.141 15.95-0.88-13.1 14.361-17.03 23.391-22.25zm6.5797 10.95c0.51 2.75 2.59 7.1094-1 8.3594-9.77 4.66-18.8 11.281-29.15 14.441 0.19-1.35 0.56-4.05 0.75-5.4 9.62-6.05 18.96-12.77 29.4-17.4zm-339.11 8.5406c3.7978 0.14078 7.3375 3.0172 8.9781 6.2891-1.6 12.56-16.58 14.721-25.92 19.541-36.25 12.48-74.1 19.65-111.55 27.62-8.93 1.95-25.2 1.5494-27.8-9.7406 33.14 4.95 66.041-3.5103 97.061-14.27 2.35-3.37-1.8603-5.3694-4.6703-3.6094-28.81 9.89-59.451 16.419-89.991 12.859 28.53-25.04 66.221-37.099 103.79-38.009 16.42-1.23 32.889-0.27031 49.339-0.67031 0.255-0.0156 0.50931-0.0188 0.76249-0.009zm341.43 4.4703c2.9865 0.11693 0.8844 6.9094-1.9656 6.6094-8.96 4.13-17.19 9.6091-25.77 14.389-3.22 1.73-3.01-2.9691-3.35-4.9891 10.01-5.52 20.31-10.661 30.42-15.941 0.2456-0.0556 0.4666-0.0765 0.6656-0.0687zm-290.33 5.3688c-10.94 17.81-7.1103 42.02 5.9797 57.67-0.09 0.4-0.25907 1.1897-0.33907 1.5797-20.12 1.08-40.18 3.62-60.37 3.05-15.21 0.38-30.56-1.1903-45.67 1.1297-5.97-7.85-6.8497-19.04-3.0797-27.98 21.39-6.11 44-11.229 62.28-24.489 7.99-11.28 23.35-7.2712 35.1-10.181 1.52-0.2 4.57-0.58969 6.1-0.77969zm14.641 0.28906c18.481-0.0744 39.331 7.3972 45.439 26.211 3.5 8.57-3.43 17.33-11 20.77-11.56 5.63-24.38 9.67-37.28 9.85-11.07-11.61-14.91-28.609-12.02-44.159 1.31-4.99 3.6703-11.111 9.2203-12.411 1.8422-0.165 3.7288-0.25325 5.6406-0.26094zm276.55 5.4125c2.6542 0.17153 1.1687 6.3609 1.8531 8.6484-8.86 4.58-18.701 7.1206-28.611 7.9906 0.02-0.41 0.061-1.2203 0.081-1.6203 8.42-5.38 17.019-10.76 26.089-14.97 0.2156-0.045 0.4105-0.0599 0.5875-0.0484zm-381.73 2.5016c-0.56-0.04-1.14 0.1-1.63 0.47-2.65 1.3-6.8403 2.6497-5.3703 6.4297 3.08 0.07 8.0909 0.43 9.2609-3.4 1.1025-1.6875-0.53578-3.3802-2.25-3.4969zm-20.13 29.27c2.3329-0.12217 0.0484 5.6141 0.47031 7.3859-2.12 6.93 2.21 13.269 3.05 19.769-8.11-0.27-16.441 0.43031-24.241-2.2797-5.28-4.31-9.5597-11.439-7.8297-18.389 9.25-2.46 18.69-4.2812 28.02-6.3812 0.19875-0.0631 0.37416-0.0966 0.52969-0.10469z"/>
<path id="path20" d="m396.28 89.209c-12.3 13.13-23.52 27.321-34.25 41.781-2.24 3.76-5.75 7.2391-6 11.839 8.74-0.82 17.52-4.8603 22.8-12.02 10.12-11.92 18.661-25.269 30.141-35.959-3-3.43-8.3506-4.4606-12.691-5.6406zm-160.67 15.941c-11.23-0.07-22.299 7.6497-25.559 18.48-0.82 7.33 0.75 18.061 8.4 21.291 13.19 3.09 29.95-3.2097 33.13-17.48 2.03-7.7-6.0894-11.621-9.5094-17.311-1.74-2.04-3.5009-4.8297-6.4609-4.9797zm192.71 1.0688c-1.1617 0.0369-2.245 0.60875-3.0859 1.9812-9 11.61-19.739 22.059-28.159 33.959 5.17-0.57 10.37-0.68 15.58-1 9.07-8.54 17.05-18.489 23.43-29.169-1.3081-2.4653-4.7952-5.8662-7.7641-5.7719zm-280.06 5.525c-4.6391-0.0564-9.2531 0.93125-12.916 2.9062-6.93 9.63-5.0006 23.529 3.4594 31.609 5.92 4.98 15.691 4.3309 21.041-1.3891 4.42-4.8 7.7594-10.691 9.5094-16.991-0.56375-10.835-10.888-16.012-21.094-16.136zm-83.316 68.277c-4.55 0.36-9.1112 0.69938-13.681 0.95938 0.17 2.4 0.85093 4.7409 1.8609 6.9109 3.75-2.25 13.4-1.4003 11.82-7.8703z" fill="#fafdfd"/>
</g>
</svg>
